# xmcd
#
# Track frame offsets:
#	150
#	17022
#	32857
#	44822
#	65175
#	77490
#	92585
#	110670
#	126100
#	143650
#	158732
#
# Disc length: 2316 seconds
#
# Revision: 0
# Processed by: cddbd v1.4PL0 Copyright (c) Steve Scherf et al.
# Submitted via: dBpowerAMP V4.0
#
DISCID=93090a0b
DTITLE=Kenny Holcomb - Blue Texas Sky
DYEAR=2002
DGENRE=Country
TTITLE0=Blue Texas Sky
TTITLE1=White Line Fever
TTITLE2=No Better Than This
TTITLE3=Forever Be Mine
TTITLE4=Turn Up The Music
TTITLE5=Enjoy The Ride
TTITLE6=Abilene
TTITLE7=Would You Like To Fall In Love Tonight
TTITLE8=Long Gone Lonesome
TTITLE9=Go Ahead And Stay Gone
TTITLE10=Your are The Light
EXTD=
EXTT0=
EXTT1=
EXTT2=
EXTT3=
EXTT4=
EXTT5=
EXTT6=
EXTT7=
EXTT8=
EXTT9=
EXTT10=
PLAYORDER=
